<svg id="Layer_1" data-name="Layer 1" xmlns="http://www.w3.org/2000/svg" viewBox="0 0 372.18 385.32"><defs><style>.cls-1{fill:#fff;}.cls-1,.cls-3{stroke:#1d1d1b;}.cls-1,.cls-3,.cls-5{stroke-miterlimit:10;}.cls-2{fill:#4a6184;}.cls-3{fill:#3d5a86;}.cls-4{fill:#6b7281;}.cls-5{fill:none;stroke:#878787;stroke-width:4px;opacity:0.9;}.cls-6{fill:#3c71b7;}.cls-7{fill:#7b85c1;}.cls-8{fill:#1d71b8;}.cls-9{fill:#36a9e1;}.cls-10{fill:#e37d60;}</style></defs><path class="cls-1" d="M279.7,341.4" transform="translate(-87.52 -165.54)"/><path class="cls-1" d="M248.55,320.7" transform="translate(-87.52 -165.54)"/><path class="cls-2" d="M459.18,328.4c1.43,1.66-.5,11-.7,13-.47,4.66-1.05,9.31-1.43,14L454.8,383l-4.5,55.25c-3,36.52-6,73-8.92,109.55l-.05.54a5.2,5.2,0,0,1-.2.83c-.75,2.06-25.68-4-25.68-4-3.14-.76-11.09-2-27-4.32-18-2.65-36.11-4.79-54.27-6q-9.54-.65-19.1-.94c-14.71-.44-30-.07-43.23,6.14-9.69,4.54-19.11,12.32-29.73,10.54-12.25-2.06-18-15.22-24.15-25.66-16.65-28.49-47.9-45.46-76.55-63-3.22-2-6.54-4.07-8.48-7.22a23.23,23.23,0,0,1-2.52-7.47c-6.64-25.59-11.18-51.87-16.75-77.7q-8.46-39.24-16.91-78.49l-4.74-22c-1.51-7-4-14.47-4.51-21.59,4.34-.93,14.11,5.16,18.34,6.92,6.42,2.68,12.82,5.42,19.15,8.28a344.21,344.21,0,0,1,37.57,19.49c23.75,14.47,45.33,33.17,59,56.8,4.49,7.72,9.16,16.78,18.05,19,8.44,2.09,16.77-3,24.23-7.35,28.66-16.64,62-24.87,95.32-27.41,33.14-2.51,65.8,1,98.68,4.69a2.18,2.18,0,0,1,1.18.38Z" transform="translate(-87.52 -165.54)"/><path class="cls-3" d="M129.76,551" transform="translate(-87.52 -165.54)"/><path class="cls-3" d="M267.35,617.33" transform="translate(-87.52 -165.54)"/><path class="cls-3" d="M139.16,661.18" transform="translate(-87.52 -165.54)"/><path class="cls-3" d="M128.42,528.32" transform="translate(-87.52 -165.54)"/><path class="cls-4" d="M264.23,347.36s-9.83-14.45-31.83-13.49l-3.5,6.72a67.5,67.5,0,0,1,35.33,6.77Z" transform="translate(-87.52 -165.54)"/><path class="cls-4" d="M226.4,323a460.88,460.88,0,0,0-64.14-66.38c-11.88-10-23.59-18.94-34.86-26.78a65.2,65.2,0,0,1-8.17,9c-4.62,4.44-10.33,8.78-14.67,8.38,0,0,15.84-9,16.84-37.75,9.89,7.57,20,15.94,30.16,25.21A452.71,452.71,0,0,1,226.4,323Z" transform="translate(-87.52 -165.54)"/><path class="cls-4" d="M241.73,323c-.78.29-11.71-45.89-52.67-89.47A233.73,233.73,0,0,0,155,203.69a28.82,28.82,0,0,1-7.16,11.5,29.85,29.85,0,0,1-9,6.05q1.68-2.67,3.21-5.7a76.24,76.24,0,0,0,7.7-38,294.43,294.43,0,0,1,40.67,42.08C231.31,271.54,242.55,322.63,241.73,323Z" transform="translate(-87.52 -165.54)"/><path class="cls-4" d="M246.56,315.72c-.82.22-7.41-41.2-38.5-89.31a296.69,296.69,0,0,0-25.55-33.9,41,41,0,0,1-5.29,11.88,42,42,0,0,1-8.27,9.28,87.69,87.69,0,0,0,4-8.91,92.11,92.11,0,0,0,5.69-39.22,327.9,327.9,0,0,1,23.11,32.28C240,258.69,247.53,315.45,246.56,315.72Z" transform="translate(-87.52 -165.54)"/><path class="cls-4" d="M486.73,377.4" transform="translate(-87.52 -165.54)"/><path class="cls-4" d="M273.16,336.52a235.3,235.3,0,0,1,51.7-30.21c47.83-20.51,93.93-23,118.63-22.94a43.21,43.21,0,0,0-.33,35,82.7,82.7,0,0,1-12-15,72.18,72.18,0,0,1-4.67-8.74,278.5,278.5,0,0,0-51,2.91C325.81,305.09,291.2,324.51,273.16,336.52Z" transform="translate(-87.52 -165.54)"/><path class="cls-4" d="M264.23,329.21a234.53,234.53,0,0,1,50-45.66A202.14,202.14,0,0,1,428.85,248.9a46.34,46.34,0,0,0-4.9,33.73,51.09,51.09,0,0,1-8-9.85,49.69,49.69,0,0,1-3.53-6.81,173.2,173.2,0,0,0-49.29,4.4C315.12,281.71,281.67,311.06,264.23,329.21Z" transform="translate(-87.52 -165.54)"/><path class="cls-4" d="M290.4,220.31" transform="translate(-87.52 -165.54)"/><path class="cls-4" d="M273.4,195.57" transform="translate(-87.52 -165.54)"/><path class="cls-4" d="M303.73,216.13" transform="translate(-87.52 -165.54)"/><path class="cls-4" d="M673.89,429.78" transform="translate(-87.52 -165.54)"/><path class="cls-4" d="M497.06,457.39" transform="translate(-87.52 -165.54)"/><path class="cls-4" d="M512.62,462.53" transform="translate(-87.52 -165.54)"/><path class="cls-5" d="M444.4,340.69c0,12.17-2,24.64-3,36.79l-3,37.55-6.07,75.09c-.88,8.43-1.36,16.92-2.05,25.37q-.52,6.62-1.07,13.24c-.15,1.95.15,4.8-.53,6.62-.86,2.29-1.9,1.43-4.47,1.06-17.29-2.48-34.36-6.27-51.64-8.79a569.88,569.88,0,0,0-57.31-5.69c-15.63-.65-32-.27-45.83,6.54-8.89,4.38-17.65,11.52-27.54,9.81-10.42-1.8-15.83-15.34-20.89-24.07-11.29-19.46-28.67-32.73-49.44-43.3-10.87-5.52-21.89-13.52-30.19-19.52-6.35-4.6-6.22-13.94-7.77-21.39L102.76,281.63c-1.47-7.05,1.52-9.33,8.41-6.73s13.56,5.44,20.17,8.5A310.5,310.5,0,0,1,168.86,304c17.25,11.07,33.6,24.15,44.09,41.11,6.22,10.06,11.94,22.63,24.06,25.11,9.76,2,19.18-3.69,27.8-8.42,40.58-22.26,88.82-27.48,135-25.41C404.13,336.56,444.4,338.41,444.4,340.69Z" transform="translate(-87.52 -165.54)"/><path class="cls-6" d="M481.06,471.52" transform="translate(-87.52 -165.54)"/><path class="cls-7" d="M529.06,365.3" transform="translate(-87.52 -165.54)"/><path class="cls-1" d="M447.67,207.33" transform="translate(-87.52 -165.54)"/><path class="cls-8" d="M484.33,221.33" transform="translate(-87.52 -165.54)"/><path class="cls-9" d="M548,224" transform="translate(-87.52 -165.54)"/><path class="cls-7" d="M497.67,175.78" transform="translate(-87.52 -165.54)"/><path class="cls-7" d="M510.11,218" transform="translate(-87.52 -165.54)"/><path class="cls-7" d="M416.78,232.22" transform="translate(-87.52 -165.54)"/><path class="cls-10" d="M301.33,454.67a234.12,234.12,0,0,0,7-26.56s10.13-50.19-4.11-81.22c-2.12-4.63-5.87-12.8-12.22-13.89-2.12-.36-8-4.17-12.58-1.77-2.07,1.08-3.57,3.17-4.09,2.81s.72-3.14,1-3.71c2.92-5.85,15.36-10.89,24-9.42,22.42,3.82,29.09,57.26,29.87,63.53a151.58,151.58,0,0,1-9.43,72.66,48.77,48.77,0,0,0-1.46-15.43,48.21,48.21,0,0,0-3.33-9,53.14,53.14,0,0,1-5,10.44A53.74,53.74,0,0,1,301.33,454.67Z" transform="translate(-87.52 -165.54)"/></svg>